<?xml version="1.0" encoding="utf-8"?>
<!-- Generator: Adobe Illustrator 22.1.0, SVG Export Plug-In . SVG Version: 6.00 Build 0)  -->
<svg version="1.1" id="Dimianni_Logo" xmlns="http://www.w3.org/2000/svg" xmlns:xlink="http://www.w3.org/1999/xlink" x="0px"
	 y="0px" viewBox="0 0 509.9 100" style="enable-background:new 0 0 509.9 100;" xml:space="preserve">
<style type="text/css">
	.st0{display:none;}
	.st1{fill:#FFFFFF;}
	.st2{enable-background:new    ;}
	.st3{fill:#1E4BFF;}
</style>
<g class="st0">
	<text transform="matrix(1 0 0 1 97.688 -375.6533)" style="display:inline;"><tspan x="0" y="0" class="st1" style="font-family:'Gilroy-Bold'; font-size:90px; letter-spacing:14;">IM</tspan><tspan x="126.3" y="0" class="st1" style="font-family:'Gilroy-Bold'; font-size:90px; letter-spacing:10;">IA</tspan><tspan x="231.2" y="0" class="st1" style="font-family:'Gilroy-Bold'; font-size:90px; letter-spacing:14;">NN</tspan><tspan x="381.1" y="0" class="st1" style="font-family:'Gilroy-Bold'; font-size:90px; letter-spacing:13;">I</tspan></text>
	
		<text transform="matrix(1 0 0 1 7.9688 -366.5977)" style="display:inline;fill:#1EFFFF; font-family:'Gilroy-Bold'; font-size:115px; letter-spacing:17;">D</text>
</g>
<g>
	<g>
		<path class="st1" d="M106.6,18.5H119v63h-12.4V18.5z"/>
		<path class="st1" d="M206.7,18.5v63h-12.3V40.6l-17.7,29.2h-1.4l-17.7-29.2v40.8h-12.4v-63h12.8L176,48.3l18-29.8H206.7z"/>
		<path class="st1" d="M232.8,18.5h12.4v63h-12.4V18.5z"/>
		<path class="st1" d="M307.8,81.5L304,70.2h-25.1l-3.8,11.3h-13.4l22-63h15.4l22.1,63H307.8z M282.9,58.5h17.3l-8.6-25.7
			L282.9,58.5z"/>
		<path class="st1" d="M374.2,18.5h12.4v63h-9.5l-27-38.5v38.5h-12.4v-63h9.5l27,38.4V18.5z"/>
		<path class="st1" d="M449.2,18.5h12.4v63h-9.5l-27-38.5v38.5h-12.4v-63h9.5l27,38.4V18.5z"/>
		<path class="st1" d="M487.7,18.5h12.4v63h-12.4V18.5z"/>
	</g>
	<g class="st2">
		<path class="st3" d="M41.7,9.8c11,0,20.3,3.9,27.7,11.6c7.4,7.7,11.1,17.3,11.1,28.6c0,11.3-3.7,20.9-11.1,28.6
			C62,86.4,52.8,90.3,41.7,90.3h-32V9.8H41.7z M41.7,75.1c7,0,12.7-2.3,17-7c4.4-4.6,6.6-10.7,6.6-18.1c0-7.4-2.2-13.5-6.6-18.1
			c-4.4-4.6-10-7-17-7H25.6v50.1H41.7z"/>
	</g>
</g>
</svg>
