<?xml version="1.0" encoding="utf-8"?>
<!-- Generator: Adobe Illustrator 22.1.0, SVG Export Plug-In . SVG Version: 6.00 Build 0)  -->
<svg version="1.1" id="Слой_1" xmlns="http://www.w3.org/2000/svg" xmlns:xlink="http://www.w3.org/1999/xlink" x="0px" y="0px"
	 viewBox="0 0 500 190" style="enable-background:new 0 0 500 190;" xml:space="preserve">
<style type="text/css">
	.st0{fill:#344B53;}
</style>
<g>
	<g>
		<g>
			<path class="st0" d="M81.7,174.4c0,0.9-0.1,1.8-0.3,2.6c-0.2,0.8-0.5,1.6-0.8,2.3c-0.4,0.7-0.8,1.4-1.3,1.9
				c-0.5,0.6-1.1,1.1-1.7,1.5l5,5.4h-2.2c-0.3,0-0.6,0-0.9-0.1c-0.3-0.1-0.5-0.2-0.7-0.5l-3.4-3.7c-0.5,0.2-1.1,0.3-1.6,0.4
				c-0.6,0.1-1.1,0.1-1.8,0.1c-1.4,0-2.7-0.2-3.9-0.7c-1.2-0.5-2.2-1.2-3-2c-0.8-0.9-1.5-1.9-2-3.2c-0.5-1.2-0.7-2.6-0.7-4
				s0.2-2.8,0.7-4c0.5-1.2,1.1-2.3,2-3.2c0.8-0.9,1.9-1.6,3-2.1c1.2-0.5,2.5-0.7,3.9-0.7s2.7,0.2,3.9,0.7c1.2,0.5,2.2,1.2,3,2.1
				c0.8,0.9,1.5,1.9,2,3.2C81.5,171.6,81.7,172.9,81.7,174.4z M79,174.4c0-1.2-0.2-2.3-0.5-3.2c-0.3-1-0.8-1.8-1.4-2.4
				s-1.3-1.2-2.2-1.5c-0.9-0.4-1.8-0.5-2.9-0.5c-1,0-2,0.2-2.8,0.5c-0.9,0.4-1.6,0.9-2.2,1.5c-0.6,0.7-1.1,1.5-1.4,2.4
				c-0.3,1-0.5,2-0.5,3.2s0.2,2.3,0.5,3.2c0.3,0.9,0.8,1.8,1.4,2.4c0.6,0.7,1.3,1.2,2.2,1.5c0.9,0.3,1.8,0.5,2.8,0.5
				c1.1,0,2-0.2,2.9-0.5c0.9-0.4,1.6-0.9,2.2-1.5c0.6-0.7,1.1-1.5,1.4-2.4C78.8,176.7,79,175.6,79,174.4z"/>
			<path class="st0" d="M105.8,182c0.8,0,1.5-0.1,2.2-0.4s1.2-0.7,1.6-1.1c0.4-0.5,0.8-1.1,1-1.8c0.2-0.7,0.3-1.4,0.3-2.2v-11.9h2.6
				v11.9c0,1.1-0.2,2.2-0.5,3.1c-0.4,1-0.9,1.8-1.5,2.5c-0.7,0.7-1.5,1.3-2.4,1.7c-1,0.4-2,0.6-3.2,0.6c-1.2,0-2.3-0.2-3.2-0.6
				c-1-0.4-1.8-1-2.5-1.7c-0.7-0.7-1.2-1.5-1.5-2.5c-0.4-1-0.5-2-0.5-3.1v-11.9h2.6v11.9c0,0.8,0.1,1.6,0.3,2.2
				c0.2,0.7,0.6,1.3,1,1.8c0.4,0.5,1,0.9,1.6,1.2C104.3,181.9,105,182,105.8,182z"/>
			<path class="st0" d="M149.2,174.4c0,1.5-0.2,2.8-0.7,4c-0.5,1.2-1.1,2.3-2,3.2c-0.8,0.9-1.9,1.6-3,2c-1.2,0.5-2.5,0.7-3.9,0.7
				c-1.4,0-2.7-0.2-3.9-0.7c-1.2-0.5-2.2-1.2-3-2c-0.8-0.9-1.5-1.9-2-3.2c-0.5-1.2-0.7-2.6-0.7-4s0.2-2.8,0.7-4
				c0.5-1.2,1.1-2.3,2-3.2c0.8-0.9,1.9-1.6,3-2.1c1.2-0.5,2.5-0.7,3.9-0.7c1.4,0,2.7,0.2,3.9,0.7c1.2,0.5,2.2,1.2,3,2.1
				c0.8,0.9,1.5,1.9,2,3.2C149,171.6,149.2,172.9,149.2,174.4z M146.5,174.4c0-1.2-0.2-2.3-0.5-3.2c-0.3-1-0.8-1.8-1.4-2.4
				c-0.6-0.7-1.3-1.2-2.2-1.5c-0.9-0.4-1.8-0.5-2.9-0.5c-1,0-2,0.2-2.8,0.5c-0.9,0.4-1.6,0.9-2.2,1.5c-0.6,0.7-1.1,1.5-1.4,2.4
				c-0.3,1-0.5,2-0.5,3.2s0.2,2.3,0.5,3.2c0.3,0.9,0.8,1.8,1.4,2.4c0.6,0.7,1.3,1.2,2.2,1.5c0.9,0.3,1.8,0.5,2.8,0.5
				c1.1,0,2-0.2,2.9-0.5c0.9-0.4,1.6-0.9,2.2-1.5c0.6-0.7,1.1-1.5,1.4-2.4C146.3,176.7,146.5,175.6,146.5,174.4z"/>
			<path class="st0" d="M177.7,164.6v2.2h-6.3v17.3h-2.6v-17.3h-6.3v-2.2H177.7z"/>
			<path class="st0" d="M205.5,164.6v2.2h-9.4v6.5h7.6v2.1h-7.6v6.7h9.4v2.2h-12v-19.5H205.5z"/>
			<path class="st0" d="M243,181.9h8.4v2.2h-11.1v-19.5h2.6V181.9z"/>
			<path class="st0" d="M270.5,184.1h-2.6v-19.5h2.6V184.1z"/>
			<path class="st0" d="M288.6,184.1v-19.5h6.2c1.2,0,2.2,0.1,3.1,0.4s1.6,0.6,2.1,1c0.6,0.4,1,1,1.2,1.6c0.3,0.6,0.4,1.3,0.4,2.1
				c0,0.5-0.1,0.9-0.2,1.4c-0.2,0.4-0.4,0.9-0.7,1.2c-0.3,0.4-0.7,0.7-1.1,1c-0.5,0.3-1,0.5-1.6,0.7c1.4,0.3,2.5,0.8,3.2,1.5
				c0.7,0.7,1.1,1.7,1.1,2.9c0,0.8-0.2,1.6-0.5,2.3c-0.3,0.7-0.7,1.3-1.3,1.8c-0.6,0.5-1.3,0.9-2.2,1.1c-0.9,0.3-1.8,0.4-2.9,0.4
				H288.6z M291.3,173.4h3.5c0.7,0,1.4-0.1,1.9-0.2c0.5-0.2,1-0.4,1.4-0.7c0.4-0.3,0.6-0.6,0.8-1.1c0.2-0.4,0.3-0.9,0.3-1.4
				c0-1.1-0.3-2-1-2.5c-0.7-0.5-1.8-0.8-3.2-0.8h-3.6V173.4z M291.3,175.2v6.8h4.2c0.8,0,1.4-0.1,1.9-0.3c0.5-0.2,1-0.4,1.3-0.7
				c0.4-0.3,0.6-0.7,0.8-1.1c0.2-0.4,0.2-0.9,0.2-1.4c0-1-0.4-1.8-1.1-2.4c-0.7-0.6-1.8-0.9-3.2-0.9H291.3z"/>
			<path class="st0" d="M322.1,176v8.1h-2.6v-19.5h5.5c1.2,0,2.3,0.1,3.2,0.4c0.9,0.2,1.6,0.6,2.2,1.1c0.6,0.5,1,1,1.3,1.7
				c0.3,0.7,0.4,1.4,0.4,2.2c0,0.7-0.1,1.3-0.3,1.9c-0.2,0.6-0.5,1.1-0.9,1.6c-0.4,0.5-0.9,0.9-1.5,1.2s-1.3,0.6-2,0.8
				c0.3,0.2,0.6,0.5,0.9,0.8l5.7,7.8h-2.3c-0.5,0-0.8-0.2-1.1-0.6l-5.1-7c-0.2-0.2-0.3-0.4-0.5-0.5c-0.2-0.1-0.5-0.1-0.8-0.1H322.1z
				 M322.1,174.1h2.8c0.8,0,1.5-0.1,2-0.3c0.6-0.2,1.1-0.5,1.5-0.8c0.4-0.3,0.7-0.7,0.9-1.2c0.2-0.5,0.3-1,0.3-1.6
				c0-1.2-0.4-2-1.2-2.6c-0.8-0.6-1.9-0.9-3.4-0.9h-2.9V174.1z"/>
			<path class="st0" d="M365.8,184.1h-2c-0.2,0-0.4-0.1-0.6-0.2c-0.1-0.1-0.3-0.3-0.3-0.4l-1.8-4.7h-8.8l-1.8,4.7
				c-0.1,0.2-0.2,0.3-0.3,0.4c-0.2,0.1-0.3,0.2-0.6,0.2h-2l7.8-19.5h2.7L365.8,184.1z M353,176.9h7.3l-3.1-7.9
				c-0.2-0.5-0.4-1.1-0.6-1.8c-0.1,0.4-0.2,0.7-0.3,1c-0.1,0.3-0.2,0.6-0.3,0.8L353,176.9z"/>
			<path class="st0" d="M384.1,176v8.1h-2.6v-19.5h5.5c1.2,0,2.3,0.1,3.2,0.4c0.9,0.2,1.6,0.6,2.2,1.1c0.6,0.5,1,1,1.3,1.7
				c0.3,0.7,0.4,1.4,0.4,2.2c0,0.7-0.1,1.3-0.3,1.9c-0.2,0.6-0.5,1.1-0.9,1.6c-0.4,0.5-0.9,0.9-1.5,1.2c-0.6,0.3-1.3,0.6-2,0.8
				c0.3,0.2,0.6,0.5,0.9,0.8l5.7,7.8h-2.3c-0.5,0-0.8-0.2-1.1-0.6l-5.1-7c-0.2-0.2-0.3-0.4-0.5-0.5c-0.2-0.1-0.5-0.1-0.8-0.1H384.1z
				 M384.1,174.1h2.8c0.8,0,1.5-0.1,2-0.3c0.6-0.2,1.1-0.5,1.5-0.8c0.4-0.3,0.7-0.7,0.9-1.2c0.2-0.5,0.3-1,0.3-1.6
				c0-1.2-0.4-2-1.2-2.6c-0.8-0.6-1.9-0.9-3.4-0.9h-2.9V174.1z"/>
			<path class="st0" d="M419.2,176.4v7.8h-2.6v-7.8l-7.2-11.8h2.3c0.2,0,0.4,0.1,0.6,0.2c0.1,0.1,0.3,0.3,0.4,0.4l4.5,7.6
				c0.2,0.3,0.3,0.6,0.5,0.9c0.1,0.3,0.2,0.6,0.3,0.8c0.1-0.3,0.2-0.6,0.3-0.8c0.1-0.3,0.3-0.6,0.4-0.9l4.5-7.6
				c0.1-0.1,0.2-0.3,0.3-0.4c0.1-0.1,0.3-0.2,0.6-0.2h2.3L419.2,176.4z"/>
		</g>
		<g>
			<path class="st0" d="M0,62c0-16.1,4.4-30.4,13.1-43C21.9,6.5,32.4,0.3,44.7,0.3c12.4,0,21.2,3.5,26.5,10.4
				c5.2,7,7.9,18.9,7.9,35.7c-0.7,17.3-5.1,31.2-13.1,41.8c-8,10.6-19.9,15.9-35.5,15.9c-8.7,0-15.9-4-21.7-11.9
				C2.9,84.2,0,74.2,0,62z M20.9,25.9c-7.2,12-10.8,25.1-10.8,39.2c0,7.6,1.7,14.3,5,20c3.4,5.8,9.3,9.5,17.8,11.1
				c7.9,0,15.8-4.2,23.7-12.5c7.8-8.3,11.9-20.7,12.2-37c0-17-2.3-27.7-6.9-32.2c-4.6-4.4-9.6-6.7-14.8-6.7
				C36.8,7.9,28.1,13.9,20.9,25.9z"/>
			<path class="st0" d="M96.5,53.1c3.2,0,4.8,0.9,4.8,2.7c0,2.5-0.9,5.8-2.6,10.1c-1.7,4.3-2.7,9.9-2.9,16.9
				c0.4,9.5,3.4,14.3,8.9,14.3c4.9,0,9.2-5.1,12.8-15.4c3.7-10.2,7-15.6,9.9-15.9c3.8,0,5.7,3,5.7,9.1c0,2.3-0.2,4.8-0.6,7.3
				c-0.4,2.6-0.6,4.8-0.6,6.6c0,1.6,0.2,4,0.5,7.2c0.3,3.2,0.5,5.2,0.5,6c0,1.7-1.1,2.6-3.2,2.6c-0.9,0-1.9-1.5-3.2-4.5
				c-1.3-3-1.9-6.4-1.9-10.3c0-3.3,0.2-6.3,0.7-8.9c-2.1,8.2-4.9,14.2-8.5,18.2c-3.6,4-7.7,6-12.2,6c-4.8,0-8.9-1.6-12.2-4.9
				c-3.4-3.2-5.1-9.2-5.1-17.8c0-4.7,1-10.8,3-18.2C92.3,56.8,94.3,53.1,96.5,53.1z"/>
			<path class="st0" d="M164.6,10c1.2-6.8,5.3-10.1,12.2-10.1c-3.3,16.5-5.8,32.9-7.4,49.1c15.9,0.4,23.9,1.1,23.9,2.2
				c0,0.5-1.7,1.1-5,1.7c-9.3,1.9-16,3.1-19.9,3.5c-1.2,13.2-1.8,23.4-1.8,30.7c0.2,11.7,0.3,18.8,0.4,21.4c0,1.2-0.2,1.8-0.6,1.8
				c-0.9,0-2.5-3.2-4.9-9.7c-2.3-6.5-3.5-16.5-3.5-29.9c0-4.1,0.2-8.5,0.5-13.2l-18.7,3.5c-1.4,0-2.1-0.3-2.2-0.9
				c0-1.5,0.5-3.3,1.5-5.5c1-2.2,1.9-3.3,2.7-3.3c6.1-1.5,12-2.2,17.5-2.2C161.6,29.8,163.4,16.7,164.6,10z"/>
			<path class="st0" d="M227.7,64c1.3,2.1,2,3.5,2,4.1c0,0.3-0.1,0.4-0.4,0.4c-0.6,0-2.1-1-4.3-3c-4.1-3.9-9.1-5.9-15.1-5.9
				c-4.7,0.3-7.1,1.5-7.1,3.6c0,3.5,3.5,8.9,10.4,16.2c7,7.3,10.4,13.4,10.4,18.3c0,2.3-1.2,4.3-3.6,5.9c-2.4,1.6-5,2.4-7.7,2.4
				c-2,0-4.7-0.7-8.1-2.2c-3.4-1.5-6.4-4.3-9-8.3c-1-1.8-1.4-3.4-1.4-4.7c0-0.3,0.1-0.4,0.2-0.4c0.3,0,0.8,0.5,1.7,1.4
				c2.3,2.8,5,4.6,8.2,5.4s5.3,1.2,6.4,1.2c1.5,0,2.9-0.5,4.1-1.5v-0.1c0-2.3-3.2-6.9-9.5-13.8c-6.3-6.9-10-11.8-11.2-14.8
				c-1.2-3-1.8-5.3-1.8-6.8c0-3.1,1.6-5.5,4.9-7.2c3.2-1.6,6.4-2.5,9.3-2.5c2.7,0,6.3,0.7,10.8,2C221.4,55,225,58.4,227.7,64z"/>
			<path class="st0" d="M236,71.7c-0.5-1.3-0.8-2.5-0.8-3.6c0-3.1,2-5.7,6-7.7c5.3-3.2,10.5-4.8,15.8-4.8c8.1,0,13.6,1.2,16.6,3.7
				c3,2.5,4.7,6.3,5,11.4c0,7.9-2.4,14.5-7.2,19.7c-4.8,5.2-12.2,10.7-22.4,16.5l-3,40.4c-1.4,0-2.7-2.2-4.1-6.7
				c-1.4-4.5-2-7.9-2-10.2c0.6-21.4,1.4-42.5,2.6-63L236,71.7z M251,64.2l-1.9,32.2c8.5-4.1,14.1-8.3,17-12.8
				c2.8-4.5,4.3-9.4,4.3-14.7c-0.2-3.6-3.3-5.7-9.2-6.3C257.5,62.7,254.1,63.2,251,64.2z"/>
			<path class="st0" d="M293.5,64.5c2.7-8.9,7.7-13.3,15-13.3c9,0.3,15.4,3.7,19.3,10.2c3.9,6.5,6,12.6,6.2,18.3
				c0,5.2-2.6,10.5-7.7,15.9c-5,6-11.1,9-18.4,9c-6-0.3-10.6-2-13.8-5.3c-3.2-3.2-4.8-7.4-4.8-12.7
				C289.4,80.7,290.8,73.3,293.5,64.5z M319.1,65.3c-3.8-4-7-6-9.6-6c-3.2,0-5.9,3.1-7.9,9.2s-3,11.3-3,15.5c0,4.3,0.8,7.5,2.4,9.5
				c1.6,2,3.6,3,6.2,3c3.6,0,7.5-2,11.6-5.9c4.1-3.9,6.1-7.9,6.1-12.1C324.9,73.7,323,69.3,319.1,65.3z"/>
			<path class="st0" d="M357.7,5.6c2.2-3,5.7-4.5,10.3-4.5c-6.3,25.3-10.3,43.8-11.8,55.6c-1.6,11.8-2.4,20.4-2.4,25.8
				c0.1,7.9,1.6,11.9,4.6,11.9c2.4,0,5.1-1.8,8.2-5.4c3-3.6,6.2-7.8,9.5-12.6c3.3-4.8,6-7.3,8.3-7.4c2,0,3.2,0.3,3.7,1
				c0.5,0.7,0.8,1.5,0.8,2.6c0,1.9-1.1,4.6-3.3,8.3c-2.2,3.6-3.3,7.2-3.3,10.8c0.5,5.3,4.9,7.9,13.1,8c6.7,0,10.1,0.3,10.1,0.8
				c0,0.2-1.4,0.9-4.1,1.8c-2.7,1-6.7,1.7-12.1,2.2c-5,0-8.6-1.1-11-3.4c-2.3-2.3-3.5-4.8-3.5-7.6c0-1.3,0.1-2.5,0.4-3.8
				c-0.7,1.4-2.5,3.8-5.3,7.3c-2.8,3.5-6.5,5.3-10.9,5.3c-5.1,0-8.7-1.7-10.9-5c-2.2-3.4-3.3-9.8-3.3-19.4c0-4.1,0.7-11.6,2.1-22.5
				C348.2,44.6,351.9,27.9,357.7,5.6z"/>
			<path class="st0" d="M425.8,72.8c7-4,10.5-7.9,10.6-11.8c0-2.3-1.2-3.5-3.7-3.5c-5,0-9.6,2.3-13.9,6.8
				c-4.3,4.5-6.5,10.7-6.5,18.7c0,4.3,1.6,7.9,4.7,10.7c3.2,2.8,7.2,4.2,12.1,4.2c7.1-0.4,13.5-2.5,19.2-6.2c1.7-1.3,2.7-2,2.9-2
				c0.3,0,0.4,0.3,0.4,0.8c0,0.4-0.8,1.7-2.5,3.9c-1.6,2.2-4.5,4.4-8.5,6.7c-4,2.3-9.2,3.4-15.4,3.4c-5.9,0-10.9-1.7-15.1-5.1
				c-4.2-3.4-6.6-8.7-7.2-15.8c0-9.7,2.9-17.2,8.8-22.7s13.4-8.2,22.5-8.2c3,0,5.5,0.7,7.4,2.1c2,1.4,2.9,3.4,2.9,6
				c-0.5,4.3-2.9,8.3-7.2,11.7c-4.3,3.5-9.6,6.2-16.2,8.2c-4,1-6.5,1.4-7.7,1.4c-0.7,0-1-0.2-1-0.5c0-0.2,0.2-0.6,0.5-1
				C414.6,79.5,418.9,76.8,425.8,72.8z"/>
			<path class="st0" d="M458.6,99.6c-0.8-1.3-1.2-5.8-1.2-13.8c0-9.3,0.2-15.7,0.6-19.4c0.4-3.6,0.8-7,1.2-10.2
				c0.4-3.1,2-4.7,4.9-4.7c2.4,0,3.9,1.2,4.7,3.5c-0.8,7.9-1.4,14.2-1.7,19c-0.3,4.8-0.5,8.6-0.5,11.4c0.7,0,2.2-3,4.6-9.1
				c4.6-8.1,9.6-12.2,14.8-12.2c4.5,0,7.9,1.6,10.1,4.9c2.2,3.3,3.5,8.6,3.9,16c0,4.3-0.3,8.5-0.8,12.6c-0.5,4.1-1.5,6.4-2.9,6.7
				c-1.9,0-3-1.1-3.3-3.3c0-1.8,0-4.2-0.1-7.1c-0.1-2.9-0.4-7.1-0.8-12.4c-0.5-5.3-2.6-8.2-6.4-8.7c-3.1,0-6.8,4.8-10.9,14.3
				c-4.1,9.5-8.5,14.3-13.3,14.3C460.3,101.5,459.3,100.8,458.6,99.6z"/>
		</g>
	</g>
</g>
</svg>
